<?xml version="1.0" encoding="UTF-8"?><svg id="Layer_2_copy_2" xmlns="http://www.w3.org/2000/svg" xmlns:xlink="http://www.w3.org/1999/xlink" viewBox="0 0 256 256"><defs><linearGradient id="linear-gradient" x1="273.1916635252" y1="131.4789077095" x2="135.9175011362" y2="126.1650691654" gradientTransform="translate(226.2670856044 -91.4213216628) rotate(66.1504459827)" gradientUnits="userSpaceOnUse"><stop offset="0" stop-color="#c600f0"/><stop offset=".9979332011" stop-color="#070093"/></linearGradient><linearGradient id="linear-gradient-2" x1="263.5900258964" y1="164.5714288279" x2="24.4672914124" y2="164.5714288279" gradientUnits="userSpaceOnUse"><stop offset=".0032655423" stop-color="#ff5f99"/><stop offset=".9946469907" stop-color="#c200f1"/></linearGradient><linearGradient id="linear-gradient-3" x1="263.5900258964" y1="54.8571493007" x2="24.4672914124" y2="54.8571493006" xlink:href="#linear-gradient-2"/><linearGradient id="linear-gradient-4" x1="263.5900258964" y1="201.142855337" x2="24.4672914123" y2="201.142855337" xlink:href="#linear-gradient-2"/><linearGradient id="linear-gradient-5" x1="263.5900258964" y1="91.4285758098" x2="24.4672914124" y2="91.4285758098" xlink:href="#linear-gradient-2"/><linearGradient id="linear-gradient-6" x1="263.5900258964" y1="128.0000023189" x2="24.4672914124" y2="128.0000023188" xlink:href="#linear-gradient-2"/><linearGradient id="linear-gradient-7" x1="263.5900258964" y1="91.4285758098" x2="24.4672914124" y2="91.4285758097" xlink:href="#linear-gradient-2"/><linearGradient id="linear-gradient-8" x1="263.5900258964" y1="54.8571493007" x2="24.4672914124" y2="54.8571493007" xlink:href="#linear-gradient-2"/></defs><ellipse cx="183.3198810303" cy="128" rx="116.9555180552" ry="60.3232526471" transform="translate(-7.8731530202 243.9111837207) rotate(-66.1504459827)" fill="url(#linear-gradient)" stroke-width="0"/><path d="m195.0476080484,176.7619043309h30.8363077849c4.5958330742-7.6617555203,8.8321423591-15.8313979168,12.6071421462-24.380951006h-43.4434499311c-6.7327377156,0-12.190475503,5.457886597-12.190475503,12.190475503s5.4577377875,12.190475503,12.190475503,12.190475503Z" fill="url(#linear-gradient-2)" stroke-width="0"/><path d="m195.0476080484,54.8571493007c0,6.732588906,5.4577377875,12.190475503,12.190475503,12.190475503h48.3508901305c-.7732142421-9.2119042424-2.6523808028-17.4276775886-5.5464282587-24.3809510061h-42.8044618719c-6.7327377156,0-12.190475503,5.457886597-12.190475503,12.190475503Z" fill="url(#linear-gradient-3)" stroke-width="0"/><path d="m109.7142795272,188.952379834c-6.7327377156,0-12.190475503,5.4577377875-12.190475503,12.1903266935v.0001488095c0,6.732588906,5.4577377875,12.190475503,12.190475503,12.190475503h87.6874950551c7.1833329282-6.9532734174,14.1309515841-15.1691955731,20.586903601-24.3809510061h-108.274398656Z" fill="url(#linear-gradient-4)" stroke-width="0"/><path d="m12.190475503,103.6190513128h73.1428530181c6.7327377156,0,12.190475503-5.457886597,12.190475503-12.190475503s-5.4577377875-12.190475503-12.190475503-12.190475503H12.190475503c-6.7327377156,0-12.190475503,5.457886597-12.190475503,12.190475503s5.4577377875,12.190475503,12.190475503,12.190475503Z" fill="url(#linear-gradient-5)" stroke-width="0"/><path d="m73.1428530181,128.0000023188c0,6.732588906,5.4577377875,12.190475503,12.190475503,12.190475503h97.5238040242c6.7327377156,0,12.190475503-5.457886597,12.190475503-12.190475503s-5.4577377875-12.190475503-12.190475503-12.190475503h-97.5238040242c-6.7327377156,0-12.190475503,5.457886597-12.190475503,12.190475503Z" fill="url(#linear-gradient-6)" stroke-width="0"/><path d="m121.9047550303,103.6190513128h109.7142795272c6.7327377156,0,12.190475503-5.457886597,12.190475503-12.190475503s-5.4577377875-12.190475503-12.190475503-12.190475503h-109.7142795272c-6.7327377156,0-12.190475503,5.457886597-12.190475503,12.190475503s5.4577377875,12.190475503,12.190475503,12.190475503Z" fill="url(#linear-gradient-7)" stroke-width="0"/><path d="m121.9047550303,54.8571493007c0-6.732588906-5.4577377875-12.190475503-12.190475503-12.190475503h-48.7619020121c-6.7327377156,0-12.190475503,5.457886597-12.190475503,12.190475503s5.4577377875,12.190475503,12.190475503,12.190475503h48.7619020121c6.7327377156,0,12.190475503-5.457886597,12.190475503-12.190475503Z" fill="url(#linear-gradient-8)" stroke-width="0"/><path d="m231.6190500265,128.0000295343v-.0000243809c0-6.7326069484-5.4578563123-12.1904632459-12.1904632607-12.1904632177h-.0000245855c-6.732606894.0000000282-12.1904631381,5.4578562217-12.1904631307,12.1904631157v.000024617c.0000000074,6.732606899,5.4578563302,12.190463166,12.1904632292,12.1904631862h.0000244125c6.7326069875.0000000202,12.1904633352-5.4578563327,12.1904633352-12.1904633202Zm-60.9523780326,36.5713994816v-.0000243809c.0000000115-6.7326070019-5.4578563646-12.1904633406-12.1904633665-12.190463283l-12.1904983763.0000001043c-6.7326067871.0000000576-12.190462928,5.4578562543-12.1904629169,12.1904630414v.0000246737c.0000000111,6.7326068685,5.457856234,12.1904631142,12.1904631026,12.1904631534l12.1904980855.000000071c6.7326070491.0000000392,12.1904634601-5.4578563307,12.1904634716-12.1904633798Zm12.1904750574-109.7154438001v-.0000244108c-.0000000029-6.7326069542-5.4578563153-12.1904632619-12.1904632695-12.190463259l-24.3809784193.0000000105c-6.7326069429.0000000029-12.1904632459,5.4578562977-12.190463259,12.1904632406v.0000243809c-.000000013,6.7326069597,5.4578562949,12.1904632825,12.1904632546,12.1904632879l24.3809784193.0000000194c6.73260696.0000000053,12.1904632768-5.4578563094,12.1904632739-12.1904632695Z" fill="#ffb966" stroke-width="0"/></svg>